<mxfile host="app.diagrams.net" modified="2023-10-11T23:13:33.029Z" agent="Mozilla/5.0 (Windows NT 10.0; Win64; x64) AppleWebKit/537.36 (KHTML, like Gecko) Chrome/114.0.0.0 Safari/537.36" etag="0kngggvjOoJ3Z0CNRFvt" version="22.0.4" type="device">
  <diagram name="Página-1" id="yWGgcxP1JK57AMVzhqnZ">
    <mxGraphModel dx="934" dy="871" grid="0" gridSize="10" guides="1" tooltips="1" connect="1" arrows="1" fold="1" page="1" pageScale="1" pageWidth="827" pageHeight="1169" math="0" shadow="0">
      <root>
        <mxCell id="0" />
        <mxCell id="1" parent="0" />
        <mxCell id="vuLfsJHM-Cu6PaN7AqRP-3" style="edgeStyle=orthogonalEdgeStyle;rounded=0;orthogonalLoop=1;jettySize=auto;html=1;" edge="1" parent="1" source="vuLfsJHM-Cu6PaN7AqRP-1" target="vuLfsJHM-Cu6PaN7AqRP-2">
          <mxGeometry relative="1" as="geometry" />
        </mxCell>
        <mxCell id="vuLfsJHM-Cu6PaN7AqRP-1" value="" style="sketch=0;points=[[0,0,0],[0.25,0,0],[0.5,0,0],[0.75,0,0],[1,0,0],[0,1,0],[0.25,1,0],[0.5,1,0],[0.75,1,0],[1,1,0],[0,0.25,0],[0,0.5,0],[0,0.75,0],[1,0.25,0],[1,0.5,0],[1,0.75,0]];outlineConnect=0;fontColor=#232F3E;fillColor=#E7157B;strokeColor=#ffffff;dashed=0;verticalLabelPosition=bottom;verticalAlign=top;align=center;html=1;fontSize=12;fontStyle=0;aspect=fixed;shape=mxgraph.aws4.resourceIcon;resIcon=mxgraph.aws4.eventbridge;" vertex="1" parent="1">
          <mxGeometry x="95" y="209" width="78" height="78" as="geometry" />
        </mxCell>
        <mxCell id="vuLfsJHM-Cu6PaN7AqRP-5" style="edgeStyle=orthogonalEdgeStyle;rounded=0;orthogonalLoop=1;jettySize=auto;html=1;" edge="1" parent="1" source="vuLfsJHM-Cu6PaN7AqRP-2" target="vuLfsJHM-Cu6PaN7AqRP-4">
          <mxGeometry relative="1" as="geometry" />
        </mxCell>
        <mxCell id="vuLfsJHM-Cu6PaN7AqRP-2" value="" style="sketch=0;points=[[0,0,0],[0.25,0,0],[0.5,0,0],[0.75,0,0],[1,0,0],[0,1,0],[0.25,1,0],[0.5,1,0],[0.75,1,0],[1,1,0],[0,0.25,0],[0,0.5,0],[0,0.75,0],[1,0.25,0],[1,0.5,0],[1,0.75,0]];outlineConnect=0;fontColor=#232F3E;fillColor=#ED7100;strokeColor=#ffffff;dashed=0;verticalLabelPosition=bottom;verticalAlign=top;align=center;html=1;fontSize=12;fontStyle=0;aspect=fixed;shape=mxgraph.aws4.resourceIcon;resIcon=mxgraph.aws4.lambda;" vertex="1" parent="1">
          <mxGeometry x="235" y="209" width="78" height="78" as="geometry" />
        </mxCell>
        <mxCell id="vuLfsJHM-Cu6PaN7AqRP-4" value="" style="sketch=0;points=[[0,0,0],[0.25,0,0],[0.5,0,0],[0.75,0,0],[1,0,0],[0,1,0],[0.25,1,0],[0.5,1,0],[0.75,1,0],[1,1,0],[0,0.25,0],[0,0.5,0],[0,0.75,0],[1,0.25,0],[1,0.5,0],[1,0.75,0]];outlineConnect=0;fontColor=#232F3E;fillColor=#E7157B;strokeColor=#ffffff;dashed=0;verticalLabelPosition=bottom;verticalAlign=top;align=center;html=1;fontSize=12;fontStyle=0;aspect=fixed;shape=mxgraph.aws4.resourceIcon;resIcon=mxgraph.aws4.sqs;" vertex="1" parent="1">
          <mxGeometry x="375" y="209" width="78" height="78" as="geometry" />
        </mxCell>
        <mxCell id="vuLfsJHM-Cu6PaN7AqRP-6" value="" style="sketch=0;points=[[0,0,0],[0.25,0,0],[0.5,0,0],[0.75,0,0],[1,0,0],[0,1,0],[0.25,1,0],[0.5,1,0],[0.75,1,0],[1,1,0],[0,0.25,0],[0,0.5,0],[0,0.75,0],[1,0.25,0],[1,0.5,0],[1,0.75,0]];outlineConnect=0;fontColor=#232F3E;fillColor=#ED7100;strokeColor=#ffffff;dashed=0;verticalLabelPosition=bottom;verticalAlign=top;align=center;html=1;fontSize=12;fontStyle=0;aspect=fixed;shape=mxgraph.aws4.resourceIcon;resIcon=mxgraph.aws4.lambda;" vertex="1" parent="1">
          <mxGeometry x="525" y="209" width="78" height="78" as="geometry" />
        </mxCell>
        <mxCell id="vuLfsJHM-Cu6PaN7AqRP-7" style="edgeStyle=orthogonalEdgeStyle;rounded=0;orthogonalLoop=1;jettySize=auto;html=1;entryX=0;entryY=0.5;entryDx=0;entryDy=0;entryPerimeter=0;" edge="1" parent="1" source="vuLfsJHM-Cu6PaN7AqRP-4" target="vuLfsJHM-Cu6PaN7AqRP-6">
          <mxGeometry relative="1" as="geometry" />
        </mxCell>
        <mxCell id="vuLfsJHM-Cu6PaN7AqRP-8" value="" style="sketch=0;points=[[0,0,0],[0.25,0,0],[0.5,0,0],[0.75,0,0],[1,0,0],[0,1,0],[0.25,1,0],[0.5,1,0],[0.75,1,0],[1,1,0],[0,0.25,0],[0,0.5,0],[0,0.75,0],[1,0.25,0],[1,0.5,0],[1,0.75,0]];outlineConnect=0;fontColor=#232F3E;fillColor=#C925D1;strokeColor=#ffffff;dashed=0;verticalLabelPosition=bottom;verticalAlign=top;align=center;html=1;fontSize=12;fontStyle=0;aspect=fixed;shape=mxgraph.aws4.resourceIcon;resIcon=mxgraph.aws4.dynamodb;" vertex="1" parent="1">
          <mxGeometry x="685" y="209" width="78" height="78" as="geometry" />
        </mxCell>
        <mxCell id="vuLfsJHM-Cu6PaN7AqRP-9" style="edgeStyle=orthogonalEdgeStyle;rounded=0;orthogonalLoop=1;jettySize=auto;html=1;entryX=0;entryY=0.5;entryDx=0;entryDy=0;entryPerimeter=0;" edge="1" parent="1" source="vuLfsJHM-Cu6PaN7AqRP-6" target="vuLfsJHM-Cu6PaN7AqRP-8">
          <mxGeometry relative="1" as="geometry" />
        </mxCell>
        <mxCell id="vuLfsJHM-Cu6PaN7AqRP-10" value="" style="sketch=0;points=[[0,0,0],[0.25,0,0],[0.5,0,0],[0.75,0,0],[1,0,0],[0,1,0],[0.25,1,0],[0.5,1,0],[0.75,1,0],[1,1,0],[0,0.25,0],[0,0.5,0],[0,0.75,0],[1,0.25,0],[1,0.5,0],[1,0.75,0]];outlineConnect=0;fontColor=#232F3E;fillColor=#E7157B;strokeColor=#ffffff;dashed=0;verticalLabelPosition=bottom;verticalAlign=top;align=center;html=1;fontSize=12;fontStyle=0;aspect=fixed;shape=mxgraph.aws4.resourceIcon;resIcon=mxgraph.aws4.sqs;" vertex="1" parent="1">
          <mxGeometry x="685" y="319" width="78" height="78" as="geometry" />
        </mxCell>
        <mxCell id="vuLfsJHM-Cu6PaN7AqRP-11" style="edgeStyle=orthogonalEdgeStyle;rounded=0;orthogonalLoop=1;jettySize=auto;html=1;entryX=0;entryY=0.5;entryDx=0;entryDy=0;entryPerimeter=0;" edge="1" parent="1" source="vuLfsJHM-Cu6PaN7AqRP-6" target="vuLfsJHM-Cu6PaN7AqRP-10">
          <mxGeometry relative="1" as="geometry" />
        </mxCell>
        <mxCell id="vuLfsJHM-Cu6PaN7AqRP-12" value="Criação de Data" style="text;html=1;align=center;verticalAlign=middle;resizable=0;points=[];autosize=1;strokeColor=none;fillColor=none;" vertex="1" parent="1">
          <mxGeometry x="219" y="297" width="110" height="30" as="geometry" />
        </mxCell>
        <mxCell id="vuLfsJHM-Cu6PaN7AqRP-13" value="Fila" style="text;html=1;align=center;verticalAlign=middle;resizable=0;points=[];autosize=1;strokeColor=none;fillColor=none;" vertex="1" parent="1">
          <mxGeometry x="394" y="297" width="40" height="30" as="geometry" />
        </mxCell>
        <mxCell id="vuLfsJHM-Cu6PaN7AqRP-14" value="Ingest Dynamo &amp;amp; Separação" style="text;html=1;align=center;verticalAlign=middle;resizable=0;points=[];autosize=1;strokeColor=none;fillColor=none;" vertex="1" parent="1">
          <mxGeometry x="475" y="169" width="180" height="30" as="geometry" />
        </mxCell>
        <mxCell id="vuLfsJHM-Cu6PaN7AqRP-15" value="Dynamo" style="text;html=1;align=center;verticalAlign=middle;resizable=0;points=[];autosize=1;strokeColor=none;fillColor=none;" vertex="1" parent="1">
          <mxGeometry x="689" y="169" width="70" height="30" as="geometry" />
        </mxCell>
        <mxCell id="vuLfsJHM-Cu6PaN7AqRP-16" value="Fila Prontos" style="text;html=1;align=center;verticalAlign=middle;resizable=0;points=[];autosize=1;strokeColor=none;fillColor=none;" vertex="1" parent="1">
          <mxGeometry x="679" y="409" width="90" height="30" as="geometry" />
        </mxCell>
        <mxCell id="vuLfsJHM-Cu6PaN7AqRP-20" value="Trigger" style="text;html=1;align=center;verticalAlign=middle;resizable=0;points=[];autosize=1;strokeColor=none;fillColor=none;" vertex="1" parent="1">
          <mxGeometry x="104" y="289" width="60" height="30" as="geometry" />
        </mxCell>
      </root>
    </mxGraphModel>
  </diagram>
</mxfile>
